<svg xmlns="http://www.w3.org/2000/svg" viewBox="0 0 96 96" role="img" aria-labelledby="title">
  <title id="title">EU AI Briefing mark</title>
  <g fill="#F4C542">
    <circle cx="48" cy="10" r="2.6"/><circle cx="67" cy="15.1" r="2.6"/>
    <circle cx="80.9" cy="29" r="2.6"/><circle cx="86" cy="48" r="2.6"/>
    <circle cx="80.9" cy="67" r="2.6"/><circle cx="67" cy="80.9" r="2.6"/>
    <circle cx="48" cy="86" r="2.6"/><circle cx="29" cy="80.9" r="2.6"/>
    <circle cx="15.1" cy="67" r="2.6"/><circle cx="10" cy="48" r="2.6"/>
    <circle cx="15.1" cy="29" r="2.6"/><circle cx="29" cy="15.1" r="2.6"/>
  </g>
  <g fill="none" stroke="#2E83E6" stroke-linecap="round" stroke-width="7">
    <path d="M27 57.5A27 27 0 0 1 48 21"/>
    <path d="M69 38.5A27 27 0 0 1 48 75"/>
  </g>
  <path fill="#F4C542" d="M48 29l4.4 14.6L67 48l-14.6 4.4L48 67l-4.4-14.6L29 48l14.6-4.4z"/>
</svg>
